<?xml version="1.0" encoding="UTF-8" standalone="no"?>
<!-- Created with Inkscape (http://www.inkscape.org/) -->

<svg
   xmlns:dc="http://purl.org/dc/elements/1.1/"
   xmlns:cc="http://creativecommons.org/ns#"
   xmlns:rdf="http://www.w3.org/1999/02/22-rdf-syntax-ns#"
   xmlns:svg="http://www.w3.org/2000/svg"
   xmlns="http://www.w3.org/2000/svg"
   xmlns:sodipodi="http://sodipodi.sourceforge.net/DTD/sodipodi-0.dtd"
   xmlns:inkscape="http://www.inkscape.org/namespaces/inkscape"
   width="101.25625"
   height="124.88611"
   id="svg9229"
   version="1.1"
   inkscape:version="0.48.4 r9939"
   sodipodi:docname="fall.svg">
  <defs
     id="defs9231">
    <clipPath
       id="clipPath3127"
       clipPathUnits="userSpaceOnUse">
      <path
         inkscape:connector-curvature="0"
         id="path3129"
         d="m 7557.27,3715.87 c 0,-38.4 -238.88,-69.57 -533.57,-69.57 -294.69,0 -533.56,31.17 -533.56,69.57 0,38.39 238.87,69.59 533.56,69.59 294.69,0 533.57,-31.2 533.57,-69.59" />
    </clipPath>
    <radialGradient
       id="radialGradient3131"
       spreadMethod="pad"
       gradientTransform="matrix(53.3436,0,0,-6.95967,702.371,371.588)"
       gradientUnits="userSpaceOnUse"
       r="0.92857099"
       cy="0"
       cx="0"
       fy="0"
       fx="0">
      <stop
         id="stop3133"
         offset="0"
         style="stop-opacity:1;stop-color:#969494" />
      <stop
         id="stop3135"
         offset="0.478022"
         style="stop-opacity:1;stop-color:#c3c2c3" />
      <stop
         id="stop3137"
         offset="1"
         style="stop-opacity:1;stop-color:#ffffff" />
    </radialGradient>
    <clipPath
       id="clipPath4647"
       clipPathUnits="userSpaceOnUse">
      <path
         inkscape:connector-curvature="0"
         id="path4649"
         d="m 6436.76,4651.12 c 0,0 20.19,-33.03 71.4,-47.84 51.25,-14.81 158.58,-5.67 254.34,-55.64 95.75,-49.99 98.46,-138.84 92.34,-168.43 -6.11,-29.55 -39.71,-35.26 -39.71,-35.26 0,0 12.17,-50.1 -64.85,-54.19 -272.94,26.13 -313.52,361.36 -313.52,361.36" />
    </clipPath>
    <linearGradient
       id="linearGradient4651"
       spreadMethod="pad"
       gradientTransform="matrix(-2e-6,36.1357,46.4199,2e-6,641.676,428.976)"
       gradientUnits="userSpaceOnUse"
       y2="0"
       x2="0.89887601"
       y1="0"
       x1="0">
      <stop
         id="stop4653"
         offset="0"
         style="stop-opacity:1;stop-color:#fff200" />
      <stop
         id="stop4655"
         offset="1"
         style="stop-opacity:1;stop-color:#f6882d" />
    </linearGradient>
    <clipPath
       id="clipPath4663"
       clipPathUnits="userSpaceOnUse">
      <path
         inkscape:connector-curvature="0"
         id="path4665"
         d="m 6762.49,4547.67 c -86.14,44.93 -181.61,42.04 -237.22,51.77 52.03,-17.75 154,-19.01 240.01,-76 77.65,-51.45 83.61,-127.66 77.87,-165.23 5.28,5.11 9.79,11.92 11.65,21.04 6.13,29.55 3.4,118.43 -92.31,168.42" />
    </clipPath>
    <linearGradient
       id="linearGradient4667"
       spreadMethod="pad"
       gradientTransform="matrix(8e-6,24.1226,37.5655,-1.3e-5,650.527,435.821)"
       gradientUnits="userSpaceOnUse"
       y2="0"
       x2="0.84269702"
       y1="0"
       x1="0.117978">
      <stop
         id="stop4669"
         offset="0"
         style="stop-opacity:1;stop-color:#f9a90c" />
      <stop
         id="stop4671"
         offset="0.488764"
         style="stop-opacity:1;stop-color:#fff200" />
      <stop
         id="stop4673"
         offset="1"
         style="stop-opacity:1;stop-color:#fff538" />
    </linearGradient>
    <clipPath
       id="clipPath4681"
       clipPathUnits="userSpaceOnUse">
      <path
         inkscape:connector-curvature="0"
         id="path4683"
         d="m 6770.5,4315.48 c -248.05,9.01 -320.94,282.18 -332.5,333.84 -0.83,1.13 -1.24,1.8 -1.24,1.8 0,0 40.44,-355.51 313.5,-361.35 31.62,1.69 48.2,11.11 56.75,21.66 -0.12,2.05 -0.22,4.2 -0.4,6.33 -11.99,-0.58 -24.73,-1.08 -36.11,-2.28" />
    </clipPath>
    <linearGradient
       id="linearGradient4685"
       spreadMethod="pad"
       gradientTransform="matrix(1.2e-5,36.1355,41.0255,-1.4e-5,641.676,428.976)"
       gradientUnits="userSpaceOnUse"
       y2="0"
       x2="0.84269702"
       y1="0"
       x1="0.117978">
      <stop
         id="stop4687"
         offset="0"
         style="stop-opacity:1;stop-color:#f9a90c" />
      <stop
         id="stop4689"
         offset="0.488764"
         style="stop-opacity:1;stop-color:#fff200" />
      <stop
         id="stop4691"
         offset="1"
         style="stop-opacity:1;stop-color:#fff538" />
    </linearGradient>
    <clipPath
       id="clipPath4699"
       clipPathUnits="userSpaceOnUse">
      <path
         inkscape:connector-curvature="0"
         id="path4701"
         d="m 6875.4,5028.3 c 0,0 -5.67,-27.12 13.78,-59.94 19.46,-32.86 79.91,-80.68 105.32,-153.68 25.44,-73.02 -16.73,-120.69 -34.42,-133.12 -17.7,-12.42 -37.98,1.09 -37.98,1.09 0,0 -18.24,-32.08 -60.41,3.54 -129.46,147.45 13.71,342.11 13.71,342.11" />
    </clipPath>
    <linearGradient
       id="linearGradient4703"
       spreadMethod="pad"
       gradientTransform="matrix(-2e-6,35.8916,32.7715,1e-6,671.223,466.939)"
       gradientUnits="userSpaceOnUse"
       y2="0"
       x2="0.89887601"
       y1="0"
       x1="0">
      <stop
         id="stop4705"
         offset="0"
         style="stop-opacity:1;stop-color:#fff200" />
      <stop
         id="stop4707"
         offset="1"
         style="stop-opacity:1;stop-color:#f6882d" />
    </linearGradient>
    <clipPath
       id="clipPath4715"
       clipPathUnits="userSpaceOnUse">
      <path
         inkscape:connector-curvature="0"
         id="path4717"
         d="m 6994.5,4814.69 c -22.87,65.65 -74.04,110.97 -98.26,143.29 18.39,-34.79 70.97,-85.41 87.87,-157.3 15.25,-64.9 -19,-107.57 -40.43,-124.33 5.25,0.07 10.96,1.4 16.41,5.27 17.68,12.4 59.82,60.06 34.41,133.07" />
    </clipPath>
    <linearGradient
       id="linearGradient4719"
       spreadMethod="pad"
       gradientTransform="matrix(-1.4e-5,28.1621,16.3672,8e-6,687.624,467.635)"
       gradientUnits="userSpaceOnUse"
       y2="0"
       x2="0.84269702"
       y1="0"
       x1="0.117978">
      <stop
         id="stop4721"
         offset="0"
         style="stop-opacity:1;stop-color:#f9a90c" />
      <stop
         id="stop4723"
         offset="0.488764"
         style="stop-opacity:1;stop-color:#fff200" />
      <stop
         id="stop4725"
         offset="1"
         style="stop-opacity:1;stop-color:#fff538" />
    </linearGradient>
    <clipPath
       id="clipPath4733"
       clipPathUnits="userSpaceOnUse">
      <path
         inkscape:connector-curvature="0"
         id="path4735"
         d="m 6884.84,4689.69 c -124.9,126.33 -28.95,304.48 -9.67,337.08 0.13,1 0.23,1.53 0.23,1.53 0,0 -153.19,-205.16 -13.71,-342.07 17.31,-14.64 30.61,-17.85 40.21,-16.56 0.96,1.14 1.94,2.32 2.92,3.52 -6.54,5.58 -13.43,11.57 -19.98,16.5" />
    </clipPath>
    <linearGradient
       id="linearGradient4737"
       spreadMethod="pad"
       gradientTransform="matrix(-1.8e-5,35.8896,22.2607,1.1e-5,670.222,466.94)"
       gradientUnits="userSpaceOnUse"
       y2="0"
       x2="0.84269702"
       y1="0"
       x1="0.117978">
      <stop
         id="stop4739"
         offset="0"
         style="stop-opacity:1;stop-color:#f9a90c" />
      <stop
         id="stop4741"
         offset="0.488764"
         style="stop-opacity:1;stop-color:#fff200" />
      <stop
         id="stop4743"
         offset="1"
         style="stop-opacity:1;stop-color:#fff538" />
    </linearGradient>
    <clipPath
       id="clipPath4751"
       clipPathUnits="userSpaceOnUse">
      <path
         inkscape:connector-curvature="0"
         id="path4753"
         d="m 7317.79,4997.3 c 0,0 -22.54,-11.14 -35.08,-43.41 -12.57,-32.3 -12.85,-102.25 -50.76,-161.29 -37.89,-59.04 -95.53,-55.61 -114.33,-49.96 -18.74,5.69 -20.48,27.74 -20.48,27.74 0,0 -33.14,-4.94 -31.3,45.1 32.76,175.03 251.95,181.82 251.95,181.82" />
    </clipPath>
    <linearGradient
       id="linearGradient4755"
       spreadMethod="pad"
       gradientTransform="matrix(-1e-6,25.7559,29.3789,1e-6,704.4,473.974)"
       gradientUnits="userSpaceOnUse"
       y2="0"
       x2="0.89887601"
       y1="0"
       x1="0">
      <stop
         id="stop4757"
         offset="0"
         style="stop-opacity:1;stop-color:#fff200" />
      <stop
         id="stop4759"
         offset="1"
         style="stop-opacity:1;stop-color:#f6882d" />
    </linearGradient>
    <clipPath
       id="clipPath4767"
       clipPathUnits="userSpaceOnUse">
      <path
         inkscape:connector-curvature="0"
         id="path4769"
         d="m 7231.97,4792.61 c 34.08,53.11 37.74,115.03 47.28,150.43 -14.52,-32.63 -21.21,-98.52 -63.12,-150.83 -37.79,-47.25 -87.43,-46.71 -111.4,-40.79 2.99,-3.7 7.15,-7.01 12.95,-8.74 18.74,-5.68 76.38,-9.11 114.29,49.93" />
    </clipPath>
    <linearGradient
       id="linearGradient4771"
       spreadMethod="pad"
       gradientTransform="matrix(-9e-6,20.328,21.4513,1e-5,708.474,473.976)"
       gradientUnits="userSpaceOnUse"
       y2="0"
       x2="0.84269702"
       y1="0"
       x1="0.117978">
      <stop
         id="stop4773"
         offset="0"
         style="stop-opacity:1;stop-color:#f9a90c" />
      <stop
         id="stop4775"
         offset="0.488764"
         style="stop-opacity:1;stop-color:#fff200" />
      <stop
         id="stop4777"
         offset="1"
         style="stop-opacity:1;stop-color:#fff538" />
    </linearGradient>
    <clipPath
       id="clipPath4785"
       clipPathUnits="userSpaceOnUse">
      <path
         inkscape:connector-curvature="0"
         id="path4787"
         d="m 7081.28,4800.93 c 20.27,159.93 201.21,191.2 235.29,195.69 0.81,0.44 1.22,0.68 1.22,0.68 0,0 -232.28,-5.51 -251.93,-181.8 -0.75,-20.55 4.4,-31.82 10.69,-37.98 1.35,-0.06 2.75,-0.07 4.15,-0.12 0.32,7.82 0.75,16.1 0.58,23.53" />
    </clipPath>
    <linearGradient
       id="linearGradient4789"
       spreadMethod="pad"
       gradientTransform="matrix(-1e-5,21.9902,29.2686,1.3e-5,704.511,477.74)"
       gradientUnits="userSpaceOnUse"
       y2="0"
       x2="0.84269702"
       y1="0"
       x1="0.117978">
      <stop
         id="stop4791"
         offset="0"
         style="stop-opacity:1;stop-color:#f9a90c" />
      <stop
         id="stop4793"
         offset="0.488764"
         style="stop-opacity:1;stop-color:#fff200" />
      <stop
         id="stop4795"
         offset="1"
         style="stop-opacity:1;stop-color:#fff538" />
    </linearGradient>
    <clipPath
       id="clipPath4803"
       clipPathUnits="userSpaceOnUse">
      <path
         inkscape:connector-curvature="0"
         id="path4805"
         d="m 7487.05,4585.32 c 0,0 -15.07,-45.19 -72.38,-77.06 -57.33,-31.92 -188.49,-50.58 -289.45,-136.93 -100.95,-86.36 -79.65,-193.61 -64.13,-227.37 15.48,-33.76 57.33,-31.29 57.33,-31.29 0,0 -0.74,-63.41 92.68,-47.06 319.9,106.73 275.95,519.71 275.95,519.71" />
    </clipPath>
    <linearGradient
       id="linearGradient4807"
       spreadMethod="pad"
       gradientTransform="matrix(-2e-6,52.2393,54.6729,2e-6,700.427,406.292)"
       gradientUnits="userSpaceOnUse"
       y2="0"
       x2="0.89887601"
       y1="0"
       x1="0">
      <stop
         id="stop4809"
         offset="0"
         style="stop-opacity:1;stop-color:#fff200" />
      <stop
         id="stop4811"
         offset="1"
         style="stop-opacity:1;stop-color:#f6882d" />
    </linearGradient>
    <clipPath
       id="clipPath4819"
       clipPathUnits="userSpaceOnUse">
      <path
         inkscape:connector-curvature="0"
         id="path4821"
         d="m 7125.25,4371.33 c 90.81,77.67 206.05,100.57 269.98,127.6 -57.45,-35.66 -179.3,-65.3 -266.64,-157.39 -78.84,-83.09 -64.96,-176.06 -47.69,-219.52 -7.76,4.63 -15.04,11.58 -19.8,21.99 -15.49,33.73 -36.76,140.99 64.15,227.32" />
    </clipPath>
    <linearGradient
       id="linearGradient4823"
       spreadMethod="pad"
       gradientTransform="matrix(-2.5e-5,37.6912,-41.09,-2.7e-5,741.523,412.202)"
       gradientUnits="userSpaceOnUse"
       y2="0"
       x2="0.84269702"
       y1="0"
       x1="0.117978">
      <stop
         id="stop4825"
         offset="0"
         style="stop-opacity:1;stop-color:#f9a90c" />
      <stop
         id="stop4827"
         offset="0.488764"
         style="stop-opacity:1;stop-color:#fff200" />
      <stop
         id="stop4829"
         offset="1"
         style="stop-opacity:1;stop-color:#fff538" />
    </linearGradient>
    <clipPath
       id="clipPath4837"
       clipPathUnits="userSpaceOnUse">
      <path
         inkscape:connector-curvature="0"
         id="path4839"
         d="m 7179.8,4090.85 c 294.77,79.35 306.65,426.83 306.26,491.96 0.67,1.6 0.99,2.51 0.99,2.51 0,0 49.71,-437.23 -275.95,-519.68 -38.35,-6.72 -60.8,0 -73.97,10.28 -0.45,2.5 -0.86,5.12 -1.28,7.72 14.55,2.61 29.94,5.56 43.95,7.21" />
    </clipPath>
    <linearGradient
       id="linearGradient4841"
       spreadMethod="pad"
       gradientTransform="matrix(-3.4e-5,52.2377,-44.091,-2.9e-5,755.676,406.294)"
       gradientUnits="userSpaceOnUse"
       y2="0"
       x2="0.84269702"
       y1="0"
       x1="0.117978">
      <stop
         id="stop4843"
         offset="0"
         style="stop-opacity:1;stop-color:#f9a90c" />
      <stop
         id="stop4845"
         offset="0.488764"
         style="stop-opacity:1;stop-color:#fff200" />
      <stop
         id="stop4847"
         offset="1"
         style="stop-opacity:1;stop-color:#fff538" />
    </linearGradient>
    <clipPath
       id="clipPath4857"
       clipPathUnits="userSpaceOnUse">
      <path
         inkscape:connector-curvature="0"
         id="path4859"
         d="m 6901.75,4419.8 c -47.62,-203.8 10.89,-427.98 43.67,-540.5 -30.03,139.79 -64.83,351.53 -43.67,540.5" />
    </clipPath>
    <linearGradient
       id="linearGradient4861"
       spreadMethod="pad"
       gradientTransform="matrix(-2e-6,54.0498,13.1289,1e-6,683.413,387.93)"
       gradientUnits="userSpaceOnUse"
       y2="0"
       x2="0.59550601"
       y1="0"
       x1="0.117978">
      <stop
         id="stop4863"
         offset="0"
         style="stop-opacity:1;stop-color:#523816" />
      <stop
         id="stop4865"
         offset="0.325843"
         style="stop-opacity:1;stop-color:#8f743c" />
      <stop
         id="stop4867"
         offset="1"
         style="stop-opacity:1;stop-color:#523816" />
    </linearGradient>
    <clipPath
       id="clipPath4875"
       clipPathUnits="userSpaceOnUse">
      <path
         inkscape:connector-curvature="0"
         id="path4877"
         d="m 6981.67,4153.38 c -17.2,123.18 -15.45,257.05 24.23,367.17 26.14,72.52 49.97,130.91 70.82,177.5 -26.82,-47.37 -55.77,-104.91 -85.67,-174.67 -50.59,-118.05 -43.23,-249.83 -9.38,-370" />
    </clipPath>
    <linearGradient
       id="linearGradient4879"
       spreadMethod="pad"
       gradientTransform="matrix(-2e-6,54.4673,17.626,1e-6,692.046,415.338)"
       gradientUnits="userSpaceOnUse"
       y2="0"
       x2="0.91011202"
       y1="0"
       x1="0.30898899">
      <stop
         id="stop4881"
         offset="0"
         style="stop-opacity:1;stop-color:#523816" />
      <stop
         id="stop4883"
         offset="0.606742"
         style="stop-opacity:1;stop-color:#8f743c" />
      <stop
         id="stop4885"
         offset="1"
         style="stop-opacity:1;stop-color:#523816" />
    </linearGradient>
  </defs>
  <sodipodi:namedview
     id="base"
     pagecolor="#ffffff"
     bordercolor="#666666"
     borderopacity="1.0"
     inkscape:pageopacity="0.0"
     inkscape:pageshadow="2"
     inkscape:zoom="0.35"
     inkscape:cx="50.628125"
     inkscape:cy="62.443054"
     inkscape:document-units="px"
     inkscape:current-layer="layer1"
     showgrid="false"
     inkscape:window-width="463"
     inkscape:window-height="423"
     inkscape:window-x="25"
     inkscape:window-y="25"
     inkscape:window-maximized="0"
     fit-margin-top="0"
     fit-margin-left="0"
     fit-margin-right="0"
     fit-margin-bottom="0" />
  <metadata
     id="metadata9234">
    <rdf:RDF>
      <cc:Work
         rdf:about="">
        <dc:format>image/svg+xml</dc:format>
        <dc:type
           rdf:resource="http://purl.org/dc/dcmitype/StillImage" />
        <dc:title></dc:title>
      </cc:Work>
    </rdf:RDF>
  </metadata>
  <g
     inkscape:label="Layer 1"
     inkscape:groupmode="layer"
     id="layer1"
     transform="translate(-324.37187,-469.91913)">
    <g
       transform="matrix(0.90366216,0,0,-0.90366216,-257.29377,924.30757)"
       id="g7633">
      <g
         transform="scale(0.1,0.1)"
         id="g3123">
        <g
           clip-path="url(#clipPath3127)"
           id="g3125">
          <path
             id="path3139"
             style="fill:url(#radialGradient3131);fill-opacity:1;fill-rule:nonzero;stroke:none"
             d="m 7557.27,3715.87 c 0,-38.4 -238.88,-69.57 -533.57,-69.57 -294.69,0 -533.56,31.17 -533.56,69.57 0,38.39 238.87,69.59 533.56,69.59 294.69,0 533.57,-31.2 533.57,-69.59"
             inkscape:connector-curvature="0" />
        </g>
      </g>
      <g
         transform="scale(0.1,0.1)"
         id="g4643">
        <g
           clip-path="url(#clipPath4647)"
           id="g4645">
          <path
             id="path4657"
             style="fill:url(#linearGradient4651);fill-opacity:1;fill-rule:nonzero;stroke:none"
             d="m 6436.76,4651.12 c 0,0 20.19,-33.03 71.4,-47.84 51.25,-14.81 158.58,-5.67 254.34,-55.64 95.75,-49.99 98.46,-138.84 92.34,-168.43 -6.11,-29.55 -39.71,-35.26 -39.71,-35.26 0,0 12.17,-50.1 -64.85,-54.19 -272.94,26.13 -313.52,361.36 -313.52,361.36"
             inkscape:connector-curvature="0" />
        </g>
      </g>
      <g
         transform="scale(0.1,0.1)"
         id="g4659">
        <g
           clip-path="url(#clipPath4663)"
           id="g4661">
          <path
             id="path4675"
             style="fill:url(#linearGradient4667);fill-opacity:1;fill-rule:nonzero;stroke:none"
             d="m 6762.49,4547.67 c -86.14,44.93 -181.61,42.04 -237.22,51.77 52.03,-17.75 154,-19.01 240.01,-76 77.65,-51.45 83.61,-127.66 77.87,-165.23 5.28,5.11 9.79,11.92 11.65,21.04 6.13,29.55 3.4,118.43 -92.31,168.42"
             inkscape:connector-curvature="0" />
        </g>
      </g>
      <g
         transform="scale(0.1,0.1)"
         id="g4677">
        <g
           clip-path="url(#clipPath4681)"
           id="g4679">
          <path
             id="path4693"
             style="fill:url(#linearGradient4685);fill-opacity:1;fill-rule:nonzero;stroke:none"
             d="m 6770.5,4315.48 c -248.05,9.01 -320.94,282.18 -332.5,333.84 -0.83,1.13 -1.24,1.8 -1.24,1.8 0,0 40.44,-355.51 313.5,-361.35 31.62,1.69 48.2,11.11 56.75,21.66 -0.12,2.05 -0.22,4.2 -0.4,6.33 -11.99,-0.58 -24.73,-1.08 -36.11,-2.28"
             inkscape:connector-curvature="0" />
        </g>
      </g>
      <g
         transform="scale(0.1,0.1)"
         id="g4695">
        <g
           clip-path="url(#clipPath4699)"
           id="g4697">
          <path
             id="path4709"
             style="fill:url(#linearGradient4703);fill-opacity:1;fill-rule:nonzero;stroke:none"
             d="m 6875.4,5028.3 c 0,0 -5.67,-27.12 13.78,-59.94 19.46,-32.86 79.91,-80.68 105.32,-153.68 25.44,-73.02 -16.73,-120.69 -34.42,-133.12 -17.7,-12.42 -37.98,1.09 -37.98,1.09 0,0 -18.24,-32.08 -60.41,3.54 -129.46,147.45 13.71,342.11 13.71,342.11"
             inkscape:connector-curvature="0" />
        </g>
      </g>
      <g
         transform="scale(0.1,0.1)"
         id="g4711">
        <g
           clip-path="url(#clipPath4715)"
           id="g4713">
          <path
             id="path4727"
             style="fill:url(#linearGradient4719);fill-opacity:1;fill-rule:nonzero;stroke:none"
             d="m 6994.5,4814.69 c -22.87,65.65 -74.04,110.97 -98.26,143.29 18.39,-34.79 70.97,-85.41 87.87,-157.3 15.25,-64.9 -19,-107.57 -40.43,-124.33 5.25,0.07 10.96,1.4 16.41,5.27 17.68,12.4 59.82,60.06 34.41,133.07"
             inkscape:connector-curvature="0" />
        </g>
      </g>
      <g
         transform="scale(0.1,0.1)"
         id="g4729">
        <g
           clip-path="url(#clipPath4733)"
           id="g4731">
          <path
             id="path4745"
             style="fill:url(#linearGradient4737);fill-opacity:1;fill-rule:nonzero;stroke:none"
             d="m 6884.84,4689.69 c -124.9,126.33 -28.95,304.48 -9.67,337.08 0.13,1 0.23,1.53 0.23,1.53 0,0 -153.19,-205.16 -13.71,-342.07 17.31,-14.64 30.61,-17.85 40.21,-16.56 0.96,1.14 1.94,2.32 2.92,3.52 -6.54,5.58 -13.43,11.57 -19.98,16.5"
             inkscape:connector-curvature="0" />
        </g>
      </g>
      <g
         transform="scale(0.1,0.1)"
         id="g4747">
        <g
           clip-path="url(#clipPath4751)"
           id="g4749">
          <path
             id="path4761"
             style="fill:url(#linearGradient4755);fill-opacity:1;fill-rule:nonzero;stroke:none"
             d="m 7317.79,4997.3 c 0,0 -22.54,-11.14 -35.08,-43.41 -12.57,-32.3 -12.85,-102.25 -50.76,-161.29 -37.89,-59.04 -95.53,-55.61 -114.33,-49.96 -18.74,5.69 -20.48,27.74 -20.48,27.74 0,0 -33.14,-4.94 -31.3,45.1 32.76,175.03 251.95,181.82 251.95,181.82"
             inkscape:connector-curvature="0" />
        </g>
      </g>
      <g
         transform="scale(0.1,0.1)"
         id="g4763">
        <g
           clip-path="url(#clipPath4767)"
           id="g4765">
          <path
             id="path4779"
             style="fill:url(#linearGradient4771);fill-opacity:1;fill-rule:nonzero;stroke:none"
             d="m 7231.97,4792.61 c 34.08,53.11 37.74,115.03 47.28,150.43 -14.52,-32.63 -21.21,-98.52 -63.12,-150.83 -37.79,-47.25 -87.43,-46.71 -111.4,-40.79 2.99,-3.7 7.15,-7.01 12.95,-8.74 18.74,-5.68 76.38,-9.11 114.29,49.93"
             inkscape:connector-curvature="0" />
        </g>
      </g>
      <g
         transform="scale(0.1,0.1)"
         id="g4781">
        <g
           clip-path="url(#clipPath4785)"
           id="g4783">
          <path
             id="path4797"
             style="fill:url(#linearGradient4789);fill-opacity:1;fill-rule:nonzero;stroke:none"
             d="m 7081.28,4800.93 c 20.27,159.93 201.21,191.2 235.29,195.69 0.81,0.44 1.22,0.68 1.22,0.68 0,0 -232.28,-5.51 -251.93,-181.8 -0.75,-20.55 4.4,-31.82 10.69,-37.98 1.35,-0.06 2.75,-0.07 4.15,-0.12 0.32,7.82 0.75,16.1 0.58,23.53"
             inkscape:connector-curvature="0" />
        </g>
      </g>
      <g
         transform="scale(0.1,0.1)"
         id="g4799">
        <g
           clip-path="url(#clipPath4803)"
           id="g4801">
          <path
             id="path4813"
             style="fill:url(#linearGradient4807);fill-opacity:1;fill-rule:nonzero;stroke:none"
             d="m 7487.05,4585.32 c 0,0 -15.07,-45.19 -72.38,-77.06 -57.33,-31.92 -188.49,-50.58 -289.45,-136.93 -100.95,-86.36 -79.65,-193.61 -64.13,-227.37 15.48,-33.76 57.33,-31.29 57.33,-31.29 0,0 -0.74,-63.41 92.68,-47.06 319.9,106.73 275.95,519.71 275.95,519.71"
             inkscape:connector-curvature="0" />
        </g>
      </g>
      <g
         transform="scale(0.1,0.1)"
         id="g4815">
        <g
           clip-path="url(#clipPath4819)"
           id="g4817">
          <path
             id="path4831"
             style="fill:url(#linearGradient4823);fill-opacity:1;fill-rule:nonzero;stroke:none"
             d="m 7125.25,4371.33 c 90.81,77.67 206.05,100.57 269.98,127.6 -57.45,-35.66 -179.3,-65.3 -266.64,-157.39 -78.84,-83.09 -64.96,-176.06 -47.69,-219.52 -7.76,4.63 -15.04,11.58 -19.8,21.99 -15.49,33.73 -36.76,140.99 64.15,227.32"
             inkscape:connector-curvature="0" />
        </g>
      </g>
      <g
         transform="scale(0.1,0.1)"
         id="g4833">
        <g
           clip-path="url(#clipPath4837)"
           id="g4835">
          <path
             id="path4849"
             style="fill:url(#linearGradient4841);fill-opacity:1;fill-rule:nonzero;stroke:none"
             d="m 7179.8,4090.85 c 294.77,79.35 306.65,426.83 306.26,491.96 0.67,1.6 0.99,2.51 0.99,2.51 0,0 49.71,-437.23 -275.95,-519.68 -38.35,-6.72 -60.8,0 -73.97,10.28 -0.45,2.5 -0.86,5.12 -1.28,7.72 14.55,2.61 29.94,5.56 43.95,7.21"
             inkscape:connector-curvature="0" />
        </g>
      </g>
      <path
         id="path4851"
         style="fill:#533816;fill-opacity:1;fill-rule:nonzero;stroke:none"
         d="m 727.029,371.301 c 0,0 -7.633,1.591 -15.754,8.192 -8.12,6.602 -20.137,46.33 -10.685,72.562 9.454,26.233 15.92,34.047 15.92,34.047 0,0 -7.399,-3.605 -21.893,-31.808 -14.496,-28.201 0.596,-66.985 1.776,-72.894 1.179,-5.909 -6.935,-10.099 -6.935,-10.099 l 37.571,0"
         inkscape:connector-curvature="0" />
      <g
         transform="scale(0.1,0.1)"
         id="g4853">
        <g
           clip-path="url(#clipPath4857)"
           id="g4855">
          <path
             id="path4869"
             style="fill:url(#linearGradient4861);fill-opacity:1;fill-rule:nonzero;stroke:none"
             d="m 6901.75,4419.8 c -47.62,-203.8 10.89,-427.98 43.67,-540.5 -30.03,139.79 -64.83,351.53 -43.67,540.5"
             inkscape:connector-curvature="0" />
        </g>
      </g>
      <g
         transform="scale(0.1,0.1)"
         id="g4871">
        <g
           clip-path="url(#clipPath4875)"
           id="g4873">
          <path
             id="path4887"
             style="fill:url(#linearGradient4879);fill-opacity:1;fill-rule:nonzero;stroke:none"
             d="m 6981.67,4153.38 c -17.2,123.18 -15.45,257.05 24.23,367.17 26.14,72.52 49.97,130.91 70.82,177.5 -26.82,-47.37 -55.77,-104.91 -85.67,-174.67 -50.59,-118.05 -43.23,-249.83 -9.38,-370"
             inkscape:connector-curvature="0" />
        </g>
      </g>
      <path
         id="path4889"
         style="fill:#533816;fill-opacity:1;fill-rule:nonzero;stroke:none"
         d="m 697.131,400.553 c 0,0 14.416,10.16 20.324,15.125 5.908,4.961 16.069,17.96 16.069,17.96 0,0 -14.415,-12.761 -22.685,-17.015 -8.273,-4.255 -17.017,-6.144 -17.017,-6.144 l 3.309,-9.926"
         inkscape:connector-curvature="0" />
      <path
         id="path4891"
         style="fill:#533816;fill-opacity:1;fill-rule:nonzero;stroke:none"
         d="m 697.02,419.507 c 0,0 -8.715,10.41 -12.875,14.61 -4.16,4.201 -14.591,11.066 -14.591,11.066 0,0 10.626,-10.198 14.467,-16.299 3.839,-6.1 5.982,-12.76 5.982,-12.76 l 7.017,3.383"
         inkscape:connector-curvature="0" />
      <path
         id="path4893"
         style="fill:#533816;fill-opacity:1;fill-rule:nonzero;stroke:none"
         d="m 695.528,453.166 c 0,0 -3.465,10.851 -4.576,15.672 -1.113,4.817 -1.305,15.198 -1.305,15.198 0,0 2.463,-12.066 5.06,-17.558 2.598,-5.488 6.348,-10.073 6.348,-10.073 l -5.527,-3.239"
         inkscape:connector-curvature="0" />
    </g>
  </g>
</svg>
