<?xml version="1.0" encoding="UTF-8" standalone="no"?>
<!-- Created with Inkscape (http://www.inkscape.org/) -->

<svg
   xmlns:dc="http://purl.org/dc/elements/1.1/"
   xmlns:cc="http://creativecommons.org/ns#"
   xmlns:rdf="http://www.w3.org/1999/02/22-rdf-syntax-ns#"
   xmlns:svg="http://www.w3.org/2000/svg"
   xmlns="http://www.w3.org/2000/svg"
   xmlns:sodipodi="http://sodipodi.sourceforge.net/DTD/sodipodi-0.dtd"
   xmlns:inkscape="http://www.inkscape.org/namespaces/inkscape"
   width="104.99108"
   height="117.79056"
   id="svg9857"
   version="1.1"
   inkscape:version="0.48.4 r9939"
   sodipodi:docname="winter.svg">
  <defs
     id="defs9859">
    <clipPath
       id="clipPath3199"
       clipPathUnits="userSpaceOnUse">
      <path
         inkscape:connector-curvature="0"
         id="path3201"
         d="m 7557.27,1726.56 c 0,-38.4 -238.88,-69.57 -533.57,-69.57 -294.69,0 -533.56,31.17 -533.56,69.57 0,38.39 238.87,69.59 533.56,69.59 294.69,0 533.57,-31.2 533.57,-69.59" />
    </clipPath>
    <radialGradient
       id="radialGradient3203"
       spreadMethod="pad"
       gradientTransform="matrix(53.3436,0,0,-6.95967,702.371,172.657)"
       gradientUnits="userSpaceOnUse"
       r="0.92857099"
       cy="0"
       cx="0"
       fy="0"
       fx="0">
      <stop
         id="stop3205"
         offset="0"
         style="stop-opacity:1;stop-color:#969494" />
      <stop
         id="stop3207"
         offset="0.478022"
         style="stop-opacity:1;stop-color:#c3c2c3" />
      <stop
         id="stop3209"
         offset="1"
         style="stop-opacity:1;stop-color:#ffffff" />
    </radialGradient>
    <clipPath
       id="clipPath4227"
       clipPathUnits="userSpaceOnUse">
      <path
         inkscape:connector-curvature="0"
         id="path4229"
         d="m 6395.43,2418.28 c 0,-299.45 242.75,-542.21 542.19,-542.21 299.45,0 542.2,242.76 542.2,542.21 0,299.43 -242.75,542.19 -542.2,542.19 -299.44,0 -542.19,-242.76 -542.19,-542.19" />
    </clipPath>
    <linearGradient
       id="linearGradient4231"
       spreadMethod="pad"
       gradientTransform="matrix(5e-6,108.439,-112.439,5e-6,749.982,187.607)"
       gradientUnits="userSpaceOnUse"
       y2="0"
       x2="1"
       y1="0"
       x1="0">
      <stop
         id="stop4233"
         offset="0"
         style="stop-opacity:1;stop-color:#cceffc" />
      <stop
         id="stop4235"
         offset="1"
         style="stop-opacity:1;stop-color:#e5f7fd" />
    </linearGradient>
    <clipPath
       id="clipPath4243"
       clipPathUnits="userSpaceOnUse">
      <path
         inkscape:connector-curvature="0"
         id="path4245"
         d="m 6506.25,2418.28 c 0,-238.24 193.14,-431.39 431.37,-431.39 238.24,0 431.38,193.15 431.38,431.39 0,238.22 -193.14,431.37 -431.38,431.37 -238.23,0 -431.37,-193.15 -431.37,-431.37" />
    </clipPath>
    <linearGradient
       id="linearGradient4247"
       spreadMethod="pad"
       gradientTransform="matrix(4e-6,86.2754,-90.2754,4e-6,738.9,198.689)"
       gradientUnits="userSpaceOnUse"
       y2="0"
       x2="1"
       y1="0"
       x1="0">
      <stop
         id="stop4249"
         offset="0"
         style="stop-opacity:1;stop-color:#7fd6f7" />
      <stop
         id="stop4251"
         offset="1"
         style="stop-opacity:1;stop-color:#bfeafb" />
    </linearGradient>
    <clipPath
       id="clipPath4263"
       clipPathUnits="userSpaceOnUse">
      <path
         inkscape:connector-curvature="0"
         id="path4265"
         d="m 7085.31,2136.04 c -76.74,5.7 -156.62,30.37 -227.89,76.54 -35.68,23.34 -69.61,53.1 -99.47,89.78 -27.64,34.42 -53.3,76.33 -68.3,123.5 l 7.6,3.63 c 15.35,-48.32 42.93,-90.76 72.46,-125.06 30.04,-34.43 63.86,-62.11 99.27,-83.61 70.67,-42.52 149.24,-64.26 224.24,-67.87 l -1.83,-67.93 c -2.87,0.45 -5.75,1 -8.64,1.52 l 2.56,49.5" />
    </clipPath>
    <linearGradient
       id="linearGradient4267"
       spreadMethod="pad"
       gradientTransform="matrix(-40.3574,0,0,-38.4473,709.322,244.949)"
       gradientUnits="userSpaceOnUse"
       y2="0"
       x2="0.91011202"
       y1="0"
       x1="0.30898899">
      <stop
         id="stop4269"
         offset="0"
         style="stop-opacity:1;stop-color:#523816" />
      <stop
         id="stop4271"
         offset="0.606742"
         style="stop-opacity:1;stop-color:#8f743c" />
      <stop
         id="stop4273"
         offset="1"
         style="stop-opacity:1;stop-color:#523816" />
    </linearGradient>
    <clipPath
       id="clipPath4283"
       clipPathUnits="userSpaceOnUse">
      <path
         inkscape:connector-curvature="0"
         id="path4285"
         d="m 7040.51,2319.55 c 21.29,19.22 41.09,43.28 57.99,72.48 16.56,29.06 31.27,64.51 37.67,103.91 l 6.43,-3.03 c -0.1,-0.98 -0.28,-1.89 -0.39,-2.85 l -0.3,0.15 c -6.4,-39.39 -21.13,-74.84 -37.69,-103.9 -16.88,-29.22 -36.7,-53.26 -57.97,-72.48 -5.88,-5.26 -11.89,-10.18 -17.99,-14.83 l 2.62,-28.59 c -1.6,-1.48 -3.18,-3.07 -4.79,-4.51 l -3.57,38.85 c 6.11,4.63 12.13,9.55 17.99,14.8" />
    </clipPath>
    <linearGradient
       id="linearGradient4287"
       spreadMethod="pad"
       gradientTransform="matrix(-12.0078,0,0,-27.0039,714.26,251.594)"
       gradientUnits="userSpaceOnUse"
       y2="0"
       x2="0.67582399"
       y1="0"
       x1="0.30898899">
      <stop
         id="stop4289"
         offset="0"
         style="stop-opacity:1;stop-color:#523816" />
      <stop
         id="stop4291"
         offset="1"
         style="stop-opacity:1;stop-color:#8f743c" />
    </linearGradient>
    <clipPath
       id="clipPath4301"
       clipPathUnits="userSpaceOnUse">
      <path
         inkscape:connector-curvature="0"
         id="path4303"
         d="m 7090.59,2106.19 c -30.84,141.56 -92.72,274.73 -177.88,387.01 l 14.65,9.77 c 87.7,-113.61 151.33,-249.24 182.76,-393.52 31.89,-144.29 28.92,-241.13 8.57,-387.61 l -19.08,0 c 19.94,144.66 22.64,241.13 -9.02,384.35" />
    </clipPath>
    <linearGradient
       id="linearGradient4305"
       spreadMethod="pad"
       gradientTransform="matrix(3e-6,78.1133,-26.9297,1e-6,716.201,172.184)"
       gradientUnits="userSpaceOnUse"
       y2="0"
       x2="0.91011202"
       y1="0"
       x1="0.30898899">
      <stop
         id="stop4307"
         offset="0"
         style="stop-opacity:1;stop-color:#523816" />
      <stop
         id="stop4309"
         offset="0.606742"
         style="stop-opacity:1;stop-color:#8f743c" />
      <stop
         id="stop4311"
         offset="1"
         style="stop-opacity:1;stop-color:#523816" />
    </linearGradient>
  </defs>
  <sodipodi:namedview
     id="base"
     pagecolor="#ffffff"
     bordercolor="#666666"
     borderopacity="1.0"
     inkscape:pageopacity="0.0"
     inkscape:pageshadow="2"
     inkscape:zoom="0.35"
     inkscape:cx="52.495541"
     inkscape:cy="58.895281"
     inkscape:document-units="px"
     inkscape:current-layer="layer1"
     showgrid="false"
     inkscape:window-width="463"
     inkscape:window-height="423"
     inkscape:window-x="50"
     inkscape:window-y="50"
     inkscape:window-maximized="0"
     fit-margin-top="0"
     fit-margin-left="0"
     fit-margin-right="0"
     fit-margin-bottom="0" />
  <metadata
     id="metadata9862">
    <rdf:RDF>
      <cc:Work
         rdf:about="">
        <dc:format>image/svg+xml</dc:format>
        <dc:type
           rdf:resource="http://purl.org/dc/dcmitype/StillImage" />
        <dc:title></dc:title>
      </cc:Work>
    </rdf:RDF>
  </metadata>
  <g
     inkscape:label="Layer 1"
     inkscape:groupmode="layer"
     id="layer1"
     transform="translate(-322.50446,-473.46691)">
    <g
       transform="matrix(0.90366216,0,0,-0.90366216,-255.42635,740.99338)"
       id="g7450">
      <g
         transform="scale(0.1,0.1)"
         id="g3195">
        <g
           clip-path="url(#clipPath3199)"
           id="g3197">
          <path
             id="path3211"
             style="fill:url(#radialGradient3203);fill-opacity:1;fill-rule:nonzero;stroke:none"
             d="m 7557.27,1726.56 c 0,-38.4 -238.88,-69.57 -533.57,-69.57 -294.69,0 -533.56,31.17 -533.56,69.57 0,38.39 238.87,69.59 533.56,69.59 294.69,0 533.57,-31.2 533.57,-69.59"
             inkscape:connector-curvature="0" />
        </g>
      </g>
      <g
         transform="scale(0.1,0.1)"
         id="g4223">
        <g
           clip-path="url(#clipPath4227)"
           id="g4225">
          <path
             id="path4237"
             style="fill:url(#linearGradient4231);fill-opacity:1;fill-rule:nonzero;stroke:none"
             d="m 6395.43,2418.28 c 0,-299.45 242.75,-542.21 542.19,-542.21 299.45,0 542.2,242.76 542.2,542.21 0,299.43 -242.75,542.19 -542.2,542.19 -299.44,0 -542.19,-242.76 -542.19,-542.19"
             inkscape:connector-curvature="0" />
        </g>
      </g>
      <g
         transform="scale(0.1,0.1)"
         id="g4239">
        <g
           clip-path="url(#clipPath4243)"
           id="g4241">
          <path
             id="path4253"
             style="fill:url(#linearGradient4247);fill-opacity:1;fill-rule:nonzero;stroke:none"
             d="m 6506.25,2418.28 c 0,-238.24 193.14,-431.39 431.37,-431.39 238.24,0 431.38,193.15 431.38,431.39 0,238.22 -193.14,431.37 -431.38,431.37 -238.23,0 -431.37,-193.15 -431.37,-431.37"
             inkscape:connector-curvature="0" />
        </g>
      </g>
      <path
         id="path4255"
         style="fill:#ffffff;fill-opacity:1;fill-rule:nonzero;stroke:none"
         d="m 660.666,225.496 -12.416,-18.1 -8.707,14.249 21.123,3.851"
         inkscape:connector-curvature="0" />
      <path
         id="path4257"
         style="fill:#533816;fill-opacity:1;fill-rule:nonzero;stroke:none"
         d="m 668.779,242.498 c 1.399,-5.525 4.01,-10.137 6.932,-14.15 2.965,-3.985 6.357,-7.295 9.973,-9.993 7.3,-5.341 15.148,-8.509 23.455,-9.853 l 0.183,6.793 c -7.5,0.361 -15.357,2.535 -22.424,6.787 -3.541,2.15 -6.923,4.918 -9.927,8.361 -2.953,3.43 -5.711,7.674 -7.246,12.506 l -0.946,-0.451"
         inkscape:connector-curvature="0" />
      <g
         transform="scale(0.1,0.1)"
         id="g4259">
        <g
           clip-path="url(#clipPath4263)"
           id="g4261">
          <path
             id="path4275"
             style="fill:url(#linearGradient4267);fill-opacity:1;fill-rule:nonzero;stroke:none"
             d="m 7085.31,2136.04 c -76.74,5.7 -156.62,30.37 -227.89,76.54 -35.68,23.34 -69.61,53.1 -99.47,89.78 -27.64,34.42 -53.3,76.33 -68.3,123.5 l 7.6,3.63 c 15.35,-48.32 42.93,-90.76 72.46,-125.06 30.04,-34.43 63.86,-62.11 99.27,-83.61 70.67,-42.52 149.24,-64.26 224.24,-67.87 l -1.83,-67.93 c -2.87,0.45 -5.75,1 -8.64,1.52 l 2.56,49.5"
             inkscape:connector-curvature="0" />
        </g>
      </g>
      <path
         id="path4277"
         style="fill:#533816;fill-opacity:1;fill-rule:nonzero;stroke:none"
         d="m 713.617,249.594 c -0.64,-3.94 -2.111,-7.485 -3.767,-10.391 -1.69,-2.92 -3.67,-5.326 -5.799,-7.248 -0.586,-0.525 -1.188,-1.017 -1.799,-1.48 l 0.357,-3.885 c 0.848,0.764 1.682,1.586 2.496,2.469 2.141,2.361 4.088,5.199 5.711,8.548 1.594,3.372 2.944,7.2 3.444,11.684 l -0.643,0.303"
         inkscape:connector-curvature="0" />
      <g
         transform="scale(0.1,0.1)"
         id="g4279">
        <g
           clip-path="url(#clipPath4283)"
           id="g4281">
          <path
             id="path4293"
             style="fill:url(#linearGradient4287);fill-opacity:1;fill-rule:nonzero;stroke:none"
             d="m 7040.51,2319.55 c 21.29,19.22 41.09,43.28 57.99,72.48 16.56,29.06 31.27,64.51 37.67,103.91 l 6.43,-3.03 c -0.1,-0.98 -0.28,-1.89 -0.39,-2.85 l -0.3,0.15 c -6.4,-39.39 -21.13,-74.84 -37.69,-103.9 -16.88,-29.22 -36.7,-53.26 -57.97,-72.48 -5.88,-5.26 -11.89,-10.18 -17.99,-14.83 l 2.62,-28.59 c -1.6,-1.48 -3.18,-3.07 -4.79,-4.51 l -3.57,38.85 c 6.11,4.63 12.13,9.55 17.99,14.8"
             inkscape:connector-curvature="0" />
        </g>
      </g>
      <path
         id="path4295"
         style="fill:#533816;fill-opacity:1;fill-rule:nonzero;stroke:none"
         d="m 689.797,248.34 c 13.674,-24.559 12.572,-51.145 4.613,-76.156 l 17.459,0 c 2.035,14.648 2.332,24.332 -0.857,38.761 -3.143,14.428 -9.506,27.991 -18.276,39.352 l -2.939,-1.957"
         inkscape:connector-curvature="0" />
      <g
         transform="scale(0.1,0.1)"
         id="g4297">
        <g
           clip-path="url(#clipPath4301)"
           id="g4299">
          <path
             id="path4313"
             style="fill:url(#linearGradient4305);fill-opacity:1;fill-rule:nonzero;stroke:none"
             d="m 7090.59,2106.19 c -30.84,141.56 -92.72,274.73 -177.88,387.01 l 14.65,9.77 c 87.7,-113.61 151.33,-249.24 182.76,-393.52 31.89,-144.29 28.92,-241.13 8.57,-387.61 l -19.08,0 c 19.94,144.66 22.64,241.13 -9.02,384.35"
             inkscape:connector-curvature="0" />
        </g>
      </g>
    </g>
  </g>
</svg>
